IDResults
version=1
nRows=16
nColumns=18
inDegrees=yes
endheader
time	ground_thorax_rot_x	ground_thorax_rot_y	ground_thorax_rot_z	ground_thorax_tx	ground_thorax_ty	ground_thorax_tz	clav_prot	clav_elev	scapula_abduction	scapula_elevation	scapula_upward_rot	scapula_winging	plane_elv	shoulder_elv	axial_rot	elbow_flexion	pro_sup
      0.00000000	      0.51728761	     -7.08362724	    -11.92134865	     -0.01960030	      0.00616441	      0.01504071	    -17.50175806	    -17.71007803	    -15.03373885	    -13.00229852	     10.74110591	     21.15956920	    -26.00000000	     23.82227831	     41.76778361	     24.78767319	   -175.18349779
      0.02000000	      0.51728761	     -6.88409468	    -11.94111278	     -0.01939722	      0.00599661	      0.01512787	    -17.69522513	    -17.65926020	    -15.35102308	    -12.98864091	     10.79886219	     21.16733630	    -26.00000000	     23.63768492	     42.13894569	     24.78096311	   -175.17674165
      0.04000000	      0.51728761	     -6.69652819	    -11.97987807	     -0.01919649	      0.00588751	      0.01523484	    -17.86902092	    -17.65757508	    -15.64216837	    -13.00265797	     10.82320000	     21.20423191	    -26.00000000	     23.50456746	     42.24958672	     24.76267600	   -175.18938629
      0.06000000	      0.51728761	     -6.51987324	    -12.00548043	     -0.01904391	      0.00579899	      0.01532577	    -18.02351206	    -17.65996532	    -15.91402563	    -13.01267101	     10.82360060	     21.24290169	    -26.00000000	     23.40467509	     42.36711819	     24.76262588	   -175.21844530
      0.08000000	      0.51728761	     -6.36618595	    -12.03021190	     -0.01893656	      0.00572552	      0.01542507	    -18.16062462	    -17.66416446	    -16.15322517	    -13.02377792	     10.82641425	     21.27745590	    -26.00000000	     23.31056453	     42.46711584	     24.76648386	   -175.23329870
      0.10000000	      0.51728761	     -6.23187453	    -12.02625130	     -0.01893500	      0.00564021	      0.01550209	    -18.26181882	    -17.63584216	    -16.33875780	    -13.00808541	     10.82817383	     21.28506004	    -26.00000000	     23.21979530	     42.55264245	     24.76649830	   -175.21842412
      0.12000000	      0.51728761	     -6.11398777	    -12.03748284	     -0.01899642	      0.00560937	      0.01557917	    -18.34355144	    -17.64882350	    -16.50123607	    -13.01382127	     10.79522414	     21.31853018	    -26.00000000	     23.19803243	     42.51588343	     24.82021657	   -175.28253899
      0.14000000	      0.51728761	     -6.05265177	    -12.03619281	     -0.01912299	      0.00559183	      0.01565806	    -18.40183637	    -17.65486016	    -16.59037321	    -13.02625801	     10.81392421	     21.33149865	    -26.00000000	     23.12695964	     42.66668504	     24.78110398	   -175.25275164
      0.16000000	      0.51728761	     -5.96924639	    -12.01542767	     -0.01937878	      0.00559205	      0.01573071	    -18.45373447	    -17.64532044	    -16.69277592	    -13.01869559	     10.80181904	     21.34079251	    -26.00000000	     23.08389261	     42.71258274	     24.79207066	   -175.25414930
      0.18000000	      0.51728761	     -5.99764783	    -12.03853449	     -0.01957107	      0.00562144	      0.01579874	    -18.42399478	    -17.68721025	    -16.63308383	    -13.04709783	     10.79483991	     21.35900009	    -26.00000000	     23.11097069	     42.66206990	     24.81691486	   -175.21981091
      0.20000000	      0.51728761	     -5.93932749	    -11.98672859	     -0.01999420	      0.00564628	      0.01584074	    -18.44146504	    -17.66757179	    -16.68783305	    -13.02594303	     10.76673582	     21.35790282	    -26.00000000	     23.10862616	     42.76276692	     24.84508223	   -175.20078203
      0.22000000	      0.51728761	     -5.91949531	    -11.94937182	     -0.02041832	      0.00570231	      0.01589318	    -18.43459214	    -17.67812579	    -16.69549031	    -13.02470552	     10.73198614	     21.36968100	    -26.00000000	     23.13232306	     42.77232199	     24.85339536	   -175.20143761
      0.24000000	      0.51728761	     -5.94566475	    -11.94039734	     -0.02083447	      0.00576649	      0.01594832	    -18.39301702	    -17.70763345	    -16.62293443	    -13.04130893	     10.71797701	     21.37969478	    -26.00000000	     23.17543617	     42.74509853	     24.86939519	   -175.18180110
      0.26000000	      0.51728761	     -5.97585494	    -11.92147208	     -0.02129033	      0.00582495	      0.01599753	    -18.34270486	    -17.72756798	    -16.53968041	    -13.04937778	     10.70079527	     21.38290797	    -26.00000000	     23.22515258	     42.70948643	     24.88824552	   -175.15032192
      0.28000000	      0.51728761	     -6.00284954	    -11.91235922	     -0.02174000	      0.00588792	      0.01605415	    -18.28787772	    -17.74998777	    -16.44835920	    -13.05886800	     10.68272149	     21.38660409	    -26.00000000	     23.27737149	     42.65205825	     24.90005837	   -175.12086562
      0.30000000	      0.51728761	     -5.95820011	    -11.84064141	     -0.02228818	      0.00590783	      0.01607608	    -18.28473638	    -17.70661746	    -16.47099825	    -13.01946514	     10.65798669	     21.36664477	    -26.00000000	     23.28411309	     42.76741791	     24.90721282	   -175.12436943
